<svg width="720" height="1024" viewBox="0 0 720 1024" fill="none" xmlns="http://www.w3.org/2000/svg">
<path d="M665.855 793.778C574.153 762.603 479.83 757.807 393.367 779.39C333.105 793.778 275.463 822.556 223.061 858.527L186.38 887.305L175.899 896.897L199.48 916.082C202.1 916.082 202.1 918.48 204.721 920.878C209.961 925.674 215.201 928.072 223.061 932.869L238.781 942.461L254.502 930.47C257.122 928.072 262.362 923.276 267.602 920.878C314.764 884.906 367.165 860.925 422.187 848.935C492.929 832.148 568.912 834.546 644.894 860.925C707.776 882.508 836.161 908.888 990.746 848.935L995.986 846.537L1003.85 839.343C1003.85 836.944 1006.47 836.944 1009.09 834.546C1022.19 820.157 1035.29 805.769 1045.77 788.982L1098.17 714.641L1014.33 757.806C891.182 820.157 778.519 832.148 665.855 793.778Z" fill="#33A602"/>
<path d="M306.881 534.777C377.623 517.99 453.606 520.388 529.588 546.767C613.431 575.545 828.278 616.313 1069.33 417.27L1108.63 381.298L1111.25 378.9L1121.73 369.307L1116.49 357.317C1113.87 347.724 1108.63 335.734 1103.39 323.744L1090.29 290.169L1064.09 314.151C1061.47 318.947 1056.22 321.345 1050.98 326.141C935.701 434.056 757.535 544.369 553.169 477.222C461.466 446.047 367.143 441.251 280.68 462.834C196.838 484.417 123.475 525.184 55.3529 582.739V580.341L16.0516 618.711C16.0516 621.109 13.432 621.109 10.8119 623.507L2.95117 630.701L5.57142 640.293C8.1915 652.284 13.4315 664.275 16.0516 676.265L31.7723 714.635L57.9731 683.46C60.5932 678.664 65.8332 676.266 68.4533 671.469C123.475 625.905 199.458 561.156 306.881 534.777Z" fill="#33A602"/>
<path d="M52.7498 491.618C113.012 434.063 181.133 398.092 254.496 378.907C325.238 362.12 401.221 364.518 477.203 390.897C713.011 470.035 917.377 340.537 1006.46 270.992L1040.52 239.817L1053.62 230.224L1043.14 215.836C1035.28 208.641 1030.04 199.049 1022.18 189.456L1006.46 170.271L988.119 187.058C985.499 189.456 980.259 194.252 977.639 196.65C867.596 292.575 697.29 390.898 503.404 323.751C411.701 292.575 317.378 287.779 230.915 309.362C175.893 323.75 123.492 347.731 71.09 378.907L16.068 419.675C10.8279 424.471 8.20778 426.869 2.96761 431.665L-2.27208 436.461V443.656C-4.89216 460.443 -4.89248 477.229 -7.51257 491.618L-10.1328 551.571L34.4089 508.404C39.6491 503.608 44.8896 496.414 52.7498 491.618Z" fill="#33A602"/>
<path d="M741.847 956.854L736.606 971.242L741.847 956.854C733.987 954.455 728.747 952.057 720.887 949.659C629.184 918.483 534.86 913.688 448.397 935.271C430.057 940.067 411.717 944.863 393.376 952.057L330.493 978.436L314.773 985.63L367.175 1002.42C382.896 1007.21 398.616 1012.01 414.336 1016.81L422.196 1019.2L430.057 1016.81C437.917 1014.41 445.777 1009.61 453.638 1009.61C458.878 1009.61 464.118 1007.21 469.358 1004.82C532.24 990.427 600.362 990.427 673.725 1012.01C681.585 1014.41 686.825 1016.81 694.686 1019.2L707.786 1024L715.646 1021.6C733.987 1016.81 754.947 1012.01 770.668 1004.82L844.03 980.835L768.048 964.048C760.188 961.649 749.707 959.252 741.847 956.854Z" fill="#33A602"/>
<path d="M1142.7 460.439L1103.39 496.411C1098.15 501.207 1092.92 506.003 1087.67 510.799C980.252 604.326 807.326 705.046 613.44 637.899C521.737 606.723 427.414 601.928 340.951 623.511C259.728 645.094 186.365 683.463 120.863 741.018L86.8024 774.591L76.3223 786.582L86.8024 800.971C94.6627 810.563 99.9032 817.758 105.143 827.35L120.863 848.933L139.204 827.35C141.824 824.952 147.064 820.155 149.684 817.757C212.566 755.406 280.689 717.036 359.291 697.852C430.033 681.065 506.016 683.463 581.998 709.842C647.5 731.425 715.623 738.62 783.745 731.426C904.269 719.435 1024.79 657.084 1113.88 587.539C1119.12 582.743 1124.36 580.345 1129.6 575.549L1137.46 568.354V561.16C1137.46 546.771 1140.08 529.985 1140.08 515.596L1142.7 460.439Z" fill="#33A602"/>
<path d="M147.053 239.808L139.193 225.419L147.053 239.808C162.773 232.614 181.115 227.817 196.835 223.021C267.577 206.234 343.56 208.632 419.542 235.011C469.324 251.798 519.105 258.992 574.127 258.992C684.171 258.992 794.214 223.021 896.397 153.476L935.698 124.698L948.799 115.106L925.218 98.3189C917.358 91.1245 906.878 83.9305 896.397 79.1343L880.677 69.542L867.576 79.1343C862.336 81.5324 859.716 86.3285 854.476 88.7266C715.611 184.651 576.747 211.03 445.743 165.466C351.42 134.291 257.097 127.097 162.774 153.476C154.913 155.874 147.053 158.272 136.573 160.67L131.333 163.068L123.472 170.262C123.472 172.66 120.853 172.661 118.233 175.059C107.752 189.447 94.6514 201.438 84.1711 215.827L34.3896 285.372L115.612 247.002C128.713 247.002 139.193 242.206 147.053 239.808Z" fill="#33A602"/>
<path d="M361.913 76.739L369.773 79.1373C403.834 91.1278 456.237 103.118 521.739 103.118C589.861 103.118 655.363 88.7296 720.865 64.7485L802.087 28.7769L747.066 11.9905C731.346 7.19433 715.624 2.39811 697.284 0H689.424L681.564 2.39752C673.704 4.79563 665.843 9.59243 657.983 11.9905C579.38 38.3697 500.778 43.166 424.795 23.9811C416.935 21.583 409.075 19.1844 401.215 16.7863L393.355 14.3881L385.494 16.7863C369.773 21.5825 354.053 26.379 338.333 33.5734L278.07 57.5545L340.953 74.3408C346.193 71.9427 354.053 74.3409 361.913 76.739Z" fill="#33A602"/>
</svg>
