<svg width="174" height="39" viewBox="0 0 174 39" fill="none" xmlns="http://www.w3.org/2000/svg">
<path d="M16.043 26.8064C13.8667 25.998 11.6281 25.8737 9.57614 26.4333C8.14596 26.8064 6.77796 27.5526 5.53432 28.4853L4.66376 29.2315L4.41504 29.4802L4.97467 29.9777C5.03685 29.9777 5.03686 30.0399 5.09904 30.102C5.22341 30.2264 5.34778 30.2886 5.53432 30.4129L5.9074 30.6617L6.28049 30.3508C6.34268 30.2886 6.46704 30.1642 6.5914 30.102C7.71068 29.1693 8.95431 28.5475 10.2601 28.2366C11.939 27.8013 13.7423 27.8635 15.5456 28.5475C17.0379 29.1071 20.0849 29.7911 23.7536 28.2366L23.878 28.1744L24.0645 27.9879C24.0645 27.9257 24.1267 27.9257 24.1889 27.8635C24.4998 27.4904 24.8107 27.1173 25.0594 26.682L26.303 24.7544L24.3132 25.8737C21.3907 27.4904 18.7169 27.8013 16.043 26.8064Z" fill="#33A602"/>
<path d="M7.52364 20.0906C9.20255 19.6553 11.0058 19.7175 12.8091 20.4015C14.7989 21.1477 19.8978 22.2048 25.6186 17.0437L26.5513 16.111L26.6135 16.0488L26.8622 15.8001L26.7378 15.4891C26.6756 15.2404 26.5513 14.9295 26.4269 14.6186L26.116 13.748L25.4942 14.3699C25.432 14.4942 25.3076 14.5564 25.1833 14.6808C22.4473 17.479 18.2189 20.3393 13.3687 18.5982C11.1924 17.7899 8.95382 17.6655 6.90182 18.2251C4.91201 18.7848 3.17091 19.8419 1.55418 21.3342V21.2721L0.621456 22.267C0.621456 22.3291 0.559286 22.3292 0.497104 22.3913L0.310547 22.5779L0.372732 22.8266C0.434914 23.1375 0.559274 23.4484 0.621456 23.7593L0.994551 24.7542L1.61637 23.9459C1.67855 23.8215 1.80291 23.7593 1.86509 23.635C3.17091 22.4535 4.97419 20.7746 7.52364 20.0906Z" fill="#33A602"/>
<path d="M1.49238 18.9715C2.92256 17.4792 4.53928 16.5464 6.28037 16.049C7.95928 15.6137 9.76255 15.6759 11.5658 16.3599C17.1622 18.4119 22.0124 15.0541 24.1266 13.2508L24.9349 12.4424L25.2458 12.1937L24.9971 11.8206C24.8106 11.6341 24.6862 11.3854 24.4997 11.1366L24.1266 10.6392L23.6913 11.0744C23.6291 11.1366 23.5047 11.261 23.4426 11.3232C20.8309 13.8104 16.7891 16.3599 12.1876 14.6188C10.0113 13.8104 7.77273 13.6861 5.72074 14.2457C4.41492 14.6188 3.17128 15.2406 1.92764 16.049L0.621818 17.1061C0.497455 17.2304 0.435273 17.2926 0.310909 17.417L0.186557 17.5413V17.7279C0.124375 18.1632 0.124367 18.5984 0.0621856 18.9715L0 20.5261L1.0571 19.4068C1.18146 19.2824 1.30583 19.0959 1.49238 18.9715Z" fill="#33A602"/>
<path d="M17.8466 31.0349L17.7222 31.408L17.8466 31.0349C17.66 30.9727 17.5357 30.9105 17.3491 30.8483C15.1728 30.04 12.9342 29.9156 10.8822 30.4753C10.4469 30.5996 10.0117 30.724 9.57639 30.9105L8.08401 31.5945L7.71094 31.7811L8.95457 32.2163C9.32766 32.3407 9.70075 32.4651 10.0738 32.5894L10.2604 32.6516L10.4469 32.5894C10.6335 32.5273 10.82 32.4029 11.0066 32.4029C11.1309 32.4029 11.2553 32.3407 11.3797 32.2785C12.872 31.9054 14.4887 31.9054 16.2298 32.4651C16.4164 32.5272 16.5408 32.5894 16.7273 32.6516L17.0382 32.776L17.2247 32.7138C17.66 32.5894 18.1575 32.4651 18.5306 32.2785L20.2717 31.6567L18.4684 31.2214C18.2818 31.1592 18.0331 31.0971 17.8466 31.0349Z" fill="#33A602"/>
<path d="M27.3597 18.1631L26.427 19.0958C26.3027 19.2202 26.1783 19.3445 26.0539 19.4689C23.5045 21.894 19.4005 24.5056 14.799 22.7645C12.6227 21.9562 10.3841 21.8318 8.33213 22.3915C6.40449 22.9511 4.66338 23.946 3.10884 25.4384L2.30048 26.3089L2.05176 26.6198L2.30048 26.9929C2.48703 27.2416 2.6114 27.4282 2.73576 27.6769L3.10884 28.2365L3.54412 27.6769C3.6063 27.6147 3.73066 27.4904 3.79284 27.4282C5.2852 25.8114 6.90193 24.8165 8.76739 24.3191C10.4463 23.8838 12.2496 23.946 14.0528 24.63C15.6074 25.1896 17.2241 25.3762 18.8408 25.1896C21.7012 24.8787 24.5616 23.262 26.6758 21.4587C26.8001 21.3344 26.9245 21.2722 27.0488 21.1478L27.2354 20.9613V20.7747C27.2354 20.4016 27.2976 19.9664 27.2976 19.5933L27.3597 18.1631Z" fill="#33A602"/>
<path d="M3.73045 12.4423L3.54391 12.0692L3.73045 12.4423C4.10354 12.2557 4.53883 12.1313 4.91192 12.007C6.59083 11.5717 8.3941 11.6339 10.1974 12.3179C11.3788 12.7532 12.5603 12.9397 13.8661 12.9397C16.4777 12.9397 19.0894 12.007 21.5145 10.2037L22.4472 9.45752L22.7581 9.20879L22.1985 8.77351C22.0119 8.58697 21.7632 8.40043 21.5145 8.27607L21.1414 8.02734L20.8305 8.27607C20.7061 8.33825 20.6439 8.46261 20.5195 8.52479C17.2239 11.0121 13.9283 11.6961 10.8192 10.5146C8.58065 9.70625 6.34209 9.51971 4.10355 10.2037C3.917 10.2659 3.73045 10.3281 3.48173 10.3902L3.35738 10.4524L3.17082 10.639C3.17082 10.7012 3.10865 10.7012 3.04647 10.7633C2.79774 11.1364 2.48682 11.4473 2.23809 11.8204L1.05664 13.6237L2.98428 12.6288C3.29519 12.6288 3.54391 12.5044 3.73045 12.4423Z" fill="#33A602"/>
<path d="M8.82967 8.21393L9.01621 8.27611C9.82457 8.58702 11.0682 8.89793 12.6228 8.89793C14.2395 8.89793 15.794 8.52484 17.3486 7.90302L19.2762 6.97029L17.9704 6.53503C17.5973 6.41067 17.2242 6.2863 16.7889 6.22412H16.6024L16.4159 6.28629C16.2293 6.34847 16.0428 6.47285 15.8562 6.53503C13.9908 7.21903 12.1253 7.34339 10.322 6.84594C10.1355 6.78376 9.94894 6.72156 9.7624 6.65938L9.57586 6.5972L9.3893 6.65938C9.01621 6.78375 8.64313 6.90812 8.27004 7.09466L6.83984 7.71648L8.33222 8.15174C8.45659 8.08956 8.64312 8.15175 8.82967 8.21393Z" fill="#33A602"/>
<path d="M39.8321 30V10.26H42.9961L50.2481 26.584H49.3801L56.6321 10.26H59.7681V30H56.4921V15.356H57.5001L50.8641 30H48.7081L42.0721 15.356H43.1081V30H39.8321ZM63.6074 36.356L62.7954 33.584C63.6727 33.3973 64.4101 33.1827 65.0074 32.94C65.6047 32.6973 66.0994 32.38 66.4914 31.988C66.8834 31.596 67.2101 31.092 67.4714 30.476L68.1714 28.824L68.0874 30.196L61.9274 15.86H65.6514L70.0754 26.892H69.2634L73.7154 15.86H77.2434L70.8034 30.784C70.3741 31.792 69.9074 32.6227 69.4034 33.276C68.8994 33.948 68.3581 34.48 67.7794 34.872C67.2007 35.2827 66.5661 35.6 65.8754 35.824C65.1847 36.048 64.4287 36.2253 63.6074 36.356ZM84.8585 30L77.8865 10.26H81.6385L87.0145 26.444H85.8945L91.6905 10.26H94.3785L99.7545 26.444H98.7185L104.347 10.26H107.875L100.847 30H97.8505L92.6425 14.824H93.2585L87.8545 30H84.8585ZM114.273 30.28C113.041 30.28 111.959 29.9907 111.025 29.412C110.092 28.8147 109.364 27.9653 108.841 26.864C108.319 25.7627 108.057 24.4467 108.057 22.916C108.057 21.3853 108.319 20.0787 108.841 18.996C109.364 17.8947 110.092 17.0547 111.025 16.476C111.959 15.8787 113.041 15.58 114.273 15.58C115.468 15.58 116.513 15.8787 117.409 16.476C118.324 17.0547 118.931 17.8387 119.229 18.828H118.921L119.229 15.86H122.589C122.533 16.4387 122.477 17.0267 122.421 17.624C122.384 18.2213 122.365 18.8093 122.365 19.388V30H118.893L118.865 27.088H119.201C118.903 28.0587 118.296 28.8333 117.381 29.412C116.467 29.9907 115.431 30.28 114.273 30.28ZM115.253 27.592C116.355 27.592 117.241 27.2093 117.913 26.444C118.585 25.66 118.921 24.484 118.921 22.916C118.921 21.348 118.585 20.1813 117.913 19.416C117.241 18.6507 116.355 18.268 115.253 18.268C114.152 18.268 113.265 18.6507 112.593 19.416C111.921 20.1813 111.585 21.348 111.585 22.916C111.585 24.484 111.912 25.66 112.565 26.444C113.237 27.2093 114.133 27.592 115.253 27.592ZM126.176 30V9.392H129.676V30H126.176ZM133.477 30V9.392H136.977V30H133.477ZM147.61 30.28C145.239 30.28 143.382 29.6267 142.038 28.32C140.694 27.0133 140.022 25.2213 140.022 22.944C140.022 21.4693 140.311 20.1813 140.89 19.08C141.469 17.9787 142.271 17.12 143.298 16.504C144.343 15.888 145.557 15.58 146.938 15.58C148.301 15.58 149.439 15.8693 150.354 16.448C151.269 17.0267 151.959 17.8387 152.426 18.884C152.911 19.9293 153.154 21.152 153.154 22.552V23.476H142.85V21.628H150.662L150.186 22.02C150.186 20.7133 149.906 19.7147 149.346 19.024C148.805 18.3333 148.011 17.988 146.966 17.988C145.809 17.988 144.913 18.3987 144.278 19.22C143.662 20.0413 143.354 21.1893 143.354 22.664V23.028C143.354 24.5587 143.727 25.7067 144.474 26.472C145.239 27.2187 146.313 27.592 147.694 27.592C148.497 27.592 149.243 27.4893 149.934 27.284C150.643 27.06 151.315 26.7053 151.95 26.22L152.986 28.572C152.314 29.1133 151.511 29.5333 150.578 29.832C149.645 30.1307 148.655 30.28 147.61 30.28ZM162.111 30.28C160.431 30.28 159.162 29.8413 158.303 28.964C157.445 28.0867 157.015 26.7707 157.015 25.016V18.492H154.299V15.86H157.015V12.248L160.515 11.352V15.86H164.295V18.492H160.515V24.792C160.515 25.7627 160.702 26.444 161.075 26.836C161.449 27.228 161.962 27.424 162.615 27.424C162.97 27.424 163.269 27.396 163.511 27.34C163.773 27.284 164.025 27.2093 164.267 27.116V29.888C163.95 30.0187 163.595 30.112 163.203 30.168C162.83 30.2427 162.466 30.28 162.111 30.28Z" fill="white"/>
</svg>
